<svg width="153" height="36" viewBox="0 0 153 36" fill="none" xmlns="http://www.w3.org/2000/svg">
<path d="M22.456 7.48397L29.428 7.34397L29.148 9.10797L26.544 9.80797L27.496 8.88397L19.768 27.028H16.576L14.672 11.572L15.344 11.6L8.54002 27.028H5.37602L3.61202 9.16397L3.86402 9.75197L1.84802 9.24797L2.10002 7.48397L9.40802 7.34397L9.12802 9.10797L6.52402 9.83597L7.05602 9.16397L8.03602 23.864L7.36402 23.836L14.364 7.45597L17.444 7.34397L19.236 23.78L18.536 23.808L24.388 9.16397L24.668 9.80797L22.176 9.24797L22.456 7.48397Z" fill="#3370FF"/>
<path d="M32.6646 27.308C31.6193 27.308 30.6673 27.1026 29.8086 26.692C28.9686 26.2626 28.2966 25.6 27.7926 24.704C27.3073 23.808 27.0646 22.6413 27.0646 21.204C27.0646 20.0093 27.2513 18.852 27.6246 17.732C27.998 16.612 28.5393 15.604 29.2486 14.708C29.958 13.812 30.8166 13.1026 31.8246 12.58C32.8513 12.0573 34.0086 11.796 35.2966 11.796C36.8086 11.796 37.9847 12.1413 38.8246 12.832C39.6833 13.5226 40.1126 14.428 40.1126 15.548C40.1126 16.4066 39.8513 17.172 39.3286 17.844C38.8246 18.4973 38.134 19.0573 37.2566 19.524C36.3793 19.972 35.3993 20.308 34.3167 20.532C33.234 20.756 32.114 20.868 30.9566 20.868C30.77 20.868 30.5926 20.868 30.4246 20.868C30.2566 20.868 30.098 20.8586 29.9486 20.84L30.1446 18.628C30.35 18.6466 30.5553 18.6653 30.7606 18.684C30.9846 18.7026 31.2086 18.712 31.4326 18.712C32.086 18.712 32.73 18.656 33.3646 18.544C34.018 18.4133 34.606 18.236 35.1286 18.012C35.6513 17.7693 36.0713 17.4706 36.3886 17.116C36.706 16.7613 36.8646 16.3506 36.8646 15.884C36.8646 15.38 36.6873 14.9693 36.3326 14.652C35.978 14.3346 35.4833 14.176 34.8486 14.176C34.1393 14.176 33.4953 14.3906 32.9166 14.82C32.3566 15.2306 31.8806 15.7813 31.4886 16.472C31.1153 17.1626 30.826 17.9186 30.6206 18.74C30.4153 19.5426 30.3126 20.3453 30.3126 21.148C30.3126 22.4546 30.5833 23.4066 31.1246 24.004C31.6846 24.6013 32.4406 24.9 33.3926 24.9C34.0273 24.9 34.6993 24.788 35.4086 24.564C36.1366 24.34 36.874 24.0226 37.6206 23.612L38.4606 25.544C37.5086 26.1226 36.538 26.5613 35.5486 26.86C34.5593 27.1586 33.598 27.308 32.6646 27.308Z" fill="#3370FF"/>
<path d="M41.4201 27.112L44.7521 6.19597L45.9001 8.23997L42.5121 7.28797L42.7921 5.46797L48.1961 5.27197L44.8641 26.216L43.6601 24.116L47.1321 25.152L46.8241 26.972L41.4201 27.112Z" fill="#3370FF"/>
<path d="M54.9205 27.308C53.8752 27.308 52.9325 27.084 52.0925 26.636C51.2525 26.188 50.5898 25.5066 50.1045 24.592C49.6192 23.6586 49.3765 22.4733 49.3765 21.036C49.3765 19.7106 49.5912 18.488 50.0205 17.368C50.4498 16.2293 51.0378 15.2493 51.7845 14.428C52.5498 13.588 53.4272 12.944 54.4165 12.496C55.4245 12.0293 56.4978 11.796 57.6365 11.796C58.3272 11.796 59.0365 11.8893 59.7645 12.076C60.5112 12.2626 61.2485 12.552 61.9765 12.944L61.3605 16.836H59.1765L59.1205 14.428L59.4285 14.82C58.6818 14.428 57.9725 14.232 57.3005 14.232C56.6098 14.232 55.9752 14.4186 55.3965 14.792C54.8365 15.1466 54.3605 15.6413 53.9685 16.276C53.5765 16.9106 53.2685 17.62 53.0445 18.404C52.8392 19.188 52.7365 20 52.7365 20.84C52.7365 22.24 53.0072 23.248 53.5485 23.864C54.0898 24.48 54.7898 24.788 55.6485 24.788C56.1898 24.788 56.7592 24.6853 57.3565 24.48C57.9725 24.2746 58.6072 23.9853 59.2605 23.612L60.1845 25.656C59.3072 26.1973 58.4112 26.608 57.4965 26.888C56.6005 27.168 55.7418 27.308 54.9205 27.308Z" fill="#3370FF"/>
<path d="M70.7341 11.796C71.8355 11.796 72.8061 12.0013 73.6461 12.412C74.4861 12.8226 75.1395 13.476 75.6061 14.372C76.0728 15.2493 76.3061 16.4253 76.3061 17.9C76.3061 19.0573 76.1381 20.196 75.8021 21.316C75.4661 22.436 74.9621 23.4533 74.2901 24.368C73.6181 25.264 72.7688 25.9826 71.7421 26.524C70.7155 27.0466 69.5022 27.308 68.1021 27.308C67.0008 27.308 66.0301 27.1026 65.1901 26.692C64.3501 26.2813 63.6968 25.628 63.2301 24.732C62.7635 23.836 62.5301 22.6693 62.5301 21.232C62.5301 20.056 62.6981 18.9173 63.0341 17.816C63.3701 16.696 63.8742 15.688 64.5462 14.792C65.2182 13.8773 66.0675 13.1493 67.0941 12.608C68.1208 12.0666 69.3341 11.796 70.7341 11.796ZM70.2861 14.232C69.5021 14.232 68.8301 14.4653 68.2701 14.932C67.7101 15.3986 67.2528 15.9866 66.8981 16.696C66.5621 17.4053 66.3102 18.1706 66.1422 18.992C65.9742 19.7946 65.8902 20.5413 65.8902 21.232C65.8902 22.3706 66.1048 23.2666 66.5341 23.92C66.9635 24.5546 67.6355 24.872 68.5501 24.872C69.3155 24.872 69.9781 24.6386 70.5381 24.172C71.0981 23.7053 71.5555 23.1173 71.9101 22.408C72.2648 21.68 72.5261 20.9146 72.6941 20.112C72.8621 19.2906 72.9462 18.5346 72.9462 17.844C72.9462 16.7053 72.7315 15.8186 72.3021 15.184C71.8728 14.5493 71.2008 14.232 70.2861 14.232Z" fill="#3370FF"/>
<path d="M95.6428 27.112L97.1548 17.62C97.2668 16.948 97.2854 16.3786 97.2108 15.912C97.1548 15.4266 97.0148 15.0626 96.7908 14.82C96.5668 14.5586 96.2494 14.428 95.8388 14.428C95.4468 14.428 95.0268 14.5586 94.5788 14.82C94.1308 15.0813 93.6921 15.4826 93.2628 16.024C92.8521 16.5466 92.4788 17.2093 92.1428 18.012C91.8068 18.8146 91.5548 19.7573 91.3868 20.84L90.4348 27H87.1308L88.6428 17.62C88.7548 16.948 88.7734 16.3786 88.6988 15.912C88.6428 15.4266 88.4934 15.0626 88.2508 14.82C88.0268 14.5586 87.7188 14.428 87.3268 14.428C86.9348 14.428 86.5148 14.5586 86.0668 14.82C85.6188 15.0813 85.1801 15.4826 84.7508 16.024C84.3401 16.5466 83.9668 17.2093 83.6308 18.012C83.2948 18.8146 83.0428 19.7573 82.8748 20.84L81.8948 27H78.5908L80.6628 13.98L82.0068 14.988L78.6188 13.952L78.8988 12.188L84.1068 11.992L83.0708 17.004L82.0628 18.768C82.4921 17.1066 83.0801 15.772 83.8268 14.764C84.5921 13.7373 85.4134 12.9906 86.2908 12.524C87.1868 12.0386 88.0268 11.796 88.8108 11.796C89.5574 11.796 90.1921 11.992 90.7148 12.384C91.2561 12.7573 91.6388 13.308 91.8628 14.036C92.1054 14.7453 92.1521 15.604 92.0028 16.612L91.8348 17.62L90.6028 18.768C91.0321 17.1066 91.6201 15.772 92.3668 14.764C93.1321 13.7373 93.9534 12.9906 94.8308 12.524C95.7081 12.0386 96.5388 11.796 97.3228 11.796C98.0881 11.796 98.7414 12.0013 99.2828 12.412C99.8241 12.8226 100.216 13.4106 100.459 14.176C100.701 14.9226 100.729 15.828 100.543 16.892L99.2268 25.208L97.8268 24.116L101.327 25.152L101.047 26.972L95.6428 27.112Z" fill="#3370FF"/>
<path d="M109.09 27.308C108.045 27.308 107.093 27.1026 106.234 26.692C105.394 26.2626 104.722 25.6 104.218 24.704C103.733 23.808 103.49 22.6413 103.49 21.204C103.49 20.0093 103.677 18.852 104.05 17.732C104.424 16.612 104.965 15.604 105.674 14.708C106.384 13.812 107.242 13.1026 108.25 12.58C109.277 12.0573 110.434 11.796 111.722 11.796C113.234 11.796 114.41 12.1413 115.25 12.832C116.109 13.5226 116.538 14.428 116.538 15.548C116.538 16.4066 116.277 17.172 115.754 17.844C115.25 18.4973 114.56 19.0573 113.682 19.524C112.805 19.972 111.825 20.308 110.742 20.532C109.66 20.756 108.54 20.868 107.382 20.868C107.196 20.868 107.018 20.868 106.85 20.868C106.682 20.868 106.524 20.8586 106.374 20.84L106.57 18.628C106.776 18.6466 106.981 18.6653 107.186 18.684C107.41 18.7026 107.634 18.712 107.858 18.712C108.512 18.712 109.156 18.656 109.79 18.544C110.444 18.4133 111.032 18.236 111.554 18.012C112.077 17.7693 112.497 17.4706 112.814 17.116C113.132 16.7613 113.29 16.3506 113.29 15.884C113.29 15.38 113.113 14.9693 112.758 14.652C112.404 14.3346 111.909 14.176 111.274 14.176C110.565 14.176 109.921 14.3906 109.342 14.82C108.782 15.2306 108.306 15.7813 107.914 16.472C107.541 17.1626 107.252 17.9186 107.046 18.74C106.841 19.5426 106.738 20.3453 106.738 21.148C106.738 22.4546 107.009 23.4066 107.55 24.004C108.11 24.6013 108.866 24.9 109.818 24.9C110.453 24.9 111.125 24.788 111.834 24.564C112.562 24.34 113.3 24.0226 114.046 23.612L114.886 25.544C113.934 26.1226 112.964 26.5613 111.974 26.86C110.985 27.1586 110.024 27.308 109.09 27.308Z" fill="#3370FF"/>
<path d="M125.032 27L125.284 25.236L128.196 24.564L127.692 25.068L130.212 9.30397L130.772 9.86397H126.152L126.992 9.19197L125.816 12.72H123.8L124.668 7.34397H139.732L138.864 12.72H136.876L136.764 9.30397L137.408 9.86397H132.732L133.572 9.30397L131.08 25.068L130.856 24.564L133.488 25.236L133.208 27H125.032Z" fill="#3370FF"/>
<path d="M146.449 11.796C147.55 11.796 148.521 12.0013 149.361 12.412C150.201 12.8226 150.854 13.476 151.321 14.372C151.788 15.2493 152.021 16.4253 152.021 17.9C152.021 19.0573 151.853 20.196 151.517 21.316C151.181 22.436 150.677 23.4533 150.005 24.368C149.333 25.264 148.484 25.9826 147.457 26.524C146.43 27.0466 145.217 27.308 143.817 27.308C142.716 27.308 141.745 27.1026 140.905 26.692C140.065 26.2813 139.412 25.628 138.945 24.732C138.478 23.836 138.245 22.6693 138.245 21.232C138.245 20.056 138.413 18.9173 138.749 17.816C139.085 16.696 139.589 15.688 140.261 14.792C140.933 13.8773 141.782 13.1493 142.809 12.608C143.836 12.0666 145.049 11.796 146.449 11.796ZM146.001 14.232C145.217 14.232 144.545 14.4653 143.985 14.932C143.425 15.3986 142.968 15.9866 142.613 16.696C142.277 17.4053 142.025 18.1706 141.857 18.992C141.689 19.7946 141.605 20.5413 141.605 21.232C141.605 22.3706 141.82 23.2666 142.249 23.92C142.678 24.5546 143.35 24.872 144.265 24.872C145.03 24.872 145.693 24.6386 146.253 24.172C146.813 23.7053 147.27 23.1173 147.625 22.408C147.98 21.68 148.241 20.9146 148.409 20.112C148.577 19.2906 148.661 18.5346 148.661 17.844C148.661 16.7053 148.446 15.8186 148.017 15.184C147.588 14.5493 146.916 14.232 146.001 14.232Z" fill="#3370FF"/>
</svg>
